<?xml version="1.0" encoding="utf-8"?>
<!-- Generator: Adobe Illustrator 24.1.3, SVG Export Plug-In . SVG Version: 6.00 Build 0)  -->
<svg version="1.1" id="圖層_1" focusable="false" xmlns="http://www.w3.org/2000/svg" xmlns:xlink="http://www.w3.org/1999/xlink"
	 x="0px" y="0px" viewBox="0 0 474.8 496" style="enable-background:new 0 0 474.8 496;" xml:space="preserve">
<style type="text/css">
	.st0{fill:#653CFF;}
</style>
<path class="st0" d="M468.8,307.6L426.2,283c4.3-23.2,4.3-47,0-70.2l42.6-24.6c4.9-2.8,7.1-8.6,5.5-14c-11.1-35.6-30-67.8-54.7-94.6
	c-3.8-4.1-10-5.1-14.8-2.3l-42.6,24.6c-17.9-15.4-38.5-27.3-60.8-35.1V17.7c0-5.6-3.9-10.5-9.4-11.7c-36.7-8.2-74.3-7.8-109.2,0
	c-5.5,1.2-9.4,6.1-9.4,11.7v49.2c-22.2,7.9-42.8,19.8-60.8,35.1L70.1,77.4c-4.9-2.8-11-1.9-14.8,2.3c-24.7,26.7-43.6,58.9-54.7,94.6
	c-1.7,5.4,0.6,11.2,5.5,14l42.6,24.6c-4.3,23.2-4.3,47,0,70.2L6.1,307.7c-4.9,2.8-7.1,8.6-5.5,14c11.1,35.6,30,67.8,54.7,94.6
	c3.8,4.1,10,5.1,14.8,2.3l42.6-24.6c17.9,15.4,38.5,27.3,60.8,35.1v49.2c0,5.6,3.9,10.5,9.4,11.7c36.7,8.2,74.3,7.8,109.2,0
	c5.5-1.2,9.4-6.1,9.4-11.7v-49.2c22.2-7.9,42.8-19.8,60.8-35.1l42.6,24.6c4.9,2.8,11,1.9,14.8-2.3c24.7-26.7,43.6-58.9,54.7-94.6
	C475.9,316.2,473.7,310.4,468.8,307.6z M237.4,327.9c-44.1,0-80-35.9-80-80s35.9-80,80-80s80,35.9,80,80S281.5,327.9,237.4,327.9z"
	/>
</svg>
