<?xml version="1.0" encoding="utf-8"?>
<!-- Generator: Adobe Illustrator 25.0.1, SVG Export Plug-In . SVG Version: 6.00 Build 0)  -->
<svg version="1.1" id="圖層_1" focusable="false" xmlns="http://www.w3.org/2000/svg" xmlns:xlink="http://www.w3.org/1999/xlink"
	 x="0px" y="0px" viewBox="0 0 100 114.3" style="enable-background:new 0 0 100 114.3;" xml:space="preserve">
<style type="text/css">
	.st0{fill:#333333;}
</style>
<path class="st0" d="M89.3,50h-5.4V33.9C83.9,15.2,68.7,0,50,0S16.1,15.2,16.1,33.9V50h-5.4C4.8,50,0,54.8,0,60.7v42.9
	c0,5.9,4.8,10.7,10.7,10.7h78.6c5.9,0,10.7-4.8,10.7-10.7V60.7C100,54.8,95.2,50,89.3,50z M66.1,50H33.9V33.9
	c0-8.9,7.2-16.1,16.1-16.1S66.1,25,66.1,33.9V50z"/>
</svg>
