<?xml version="1.0" encoding="utf-8"?>
<!-- Generator: Adobe Illustrator 24.1.3, SVG Export Plug-In . SVG Version: 6.00 Build 0)  -->
<svg version="1.1" id="menu-btn" xmlns="http://www.w3.org/2000/svg" xmlns:xlink="http://www.w3.org/1999/xlink" x="0px" y="0px"
	 viewBox="0 0 100 200" style="enable-background:new 0 0 100 200;" xml:space="preserve">
<style type="text/css">
	.st0{fill:#FFFFFF;}
	.st1{fill:#653CFF;}
	.st2{opacity:0.5;fill:#653CFF;enable-background:new    ;}
</style>
<path id="close" class="st0" d="M61,150l31.7-31.8c3-3,3-8,0-11s-8-3-11,0L50,139l-31.8-31.7c-3-3-8-3-11,0s-3,8,0,11L39,150
	L7.3,181.8c-3,3-3,8,0,11s8,3,11,0L50,161l31.8,31.7c3,3,8,3,11,0s3-8,0-11L61,150z"/>
<g id="open">
	<g>
		<path class="st1" d="M93.6,17.8H6.4C2.9,17.8,0,15,0,11.4S2.9,5,6.4,5h87.2c3.5,0,6.4,2.9,6.4,6.4S97.1,17.8,93.6,17.8z"/>
		<path class="st1" d="M57.7,56.4H6.4C2.9,56.4,0,53.6,0,50s2.9-6.4,6.4-6.4h51.3c3.5,0,6.4,2.9,6.4,6.4S61.2,56.4,57.7,56.4z"/>
	</g>
	<path class="st2" d="M93.6,56.4H83.3c-3.5,0-6.4-2.9-6.4-6.4s2.9-6.4,6.4-6.4h10.3c3.5,0,6.4,2.9,6.4,6.4
		C100,53.6,97.1,56.4,93.6,56.4z"/>
	<path class="st1" d="M93.6,95H6.4C2.9,95,0,92.1,0,88.6s2.9-6.4,6.4-6.4h87.2c3.5,0,6.4,2.9,6.4,6.4S97.1,95,93.6,95z"/>
</g>
</svg>
