<?xml version="1.0" encoding="utf-8"?>
<!-- Generator: Adobe Illustrator 25.0.1, SVG Export Plug-In . SVG Version: 6.00 Build 0)  -->
<svg version="1.1" id="圖層_1" xmlns="http://www.w3.org/2000/svg" xmlns:xlink="http://www.w3.org/1999/xlink" x="0px" y="0px"
	 viewBox="0 0 22.6 145.5" style="enable-background:new 0 0 22.6 145.5;" xml:space="preserve">
<style type="text/css">
	.st0{fill:#653CFF;}
	.st1{fill:#CEC6E9;}
</style>
<g>
	<g>
		<circle class="st0" cx="18.5" cy="4.1" r="4.1"/>
		<path class="st1" d="M17.3,6.8H2.7C1.2,6.8,0,5.6,0,4.1l0,0c0-1.5,1.2-2.7,2.7-2.7h14.6c1.5,0,2.7,1.2,2.7,2.7l0,0
			C20,5.6,18.8,6.8,17.3,6.8z"/>
	</g>
	<g>
		<circle class="st0" cx="18.5" cy="31.5" r="4.1"/>
		<path class="st1" d="M17.3,34.3H2.7c-1.5,0-2.7-1.2-2.7-2.7l0,0c0-1.5,1.2-2.7,2.7-2.7h14.6c1.5,0,2.7,1.2,2.7,2.7l0,0
			C20,33.1,18.8,34.3,17.3,34.3z"/>
	</g>
	<g>
		<circle class="st0" cx="18.5" cy="59" r="4.1"/>
		<path class="st1" d="M17.3,61.7H2.7C1.2,61.7,0,60.5,0,59l0,0c0-1.5,1.2-2.7,2.7-2.7h14.6c1.5,0,2.7,1.2,2.7,2.7l0,0
			C20,60.5,18.8,61.7,17.3,61.7z"/>
	</g>
	<g>
		<circle class="st0" cx="18.5" cy="86.5" r="4.1"/>
		<path class="st1" d="M17.3,89.2H2.7C1.2,89.2,0,88,0,86.5l0,0c0-1.5,1.2-2.7,2.7-2.7h14.6c1.5,0,2.7,1.2,2.7,2.7l0,0
			C20,88,18.8,89.2,17.3,89.2z"/>
	</g>
	<g>
		<circle class="st0" cx="18.5" cy="113.9" r="4.1"/>
		<path class="st1" d="M17.3,116.6H2.7c-1.5,0-2.7-1.2-2.7-2.7l0,0c0-1.5,1.2-2.7,2.7-2.7h14.6c1.5,0,2.7,1.2,2.7,2.7l0,0
			C20,115.4,18.8,116.6,17.3,116.6z"/>
	</g>
	<g>
		<circle class="st0" cx="18.5" cy="141.4" r="4.1"/>
		<path class="st1" d="M17.3,144.1H2.7c-1.5,0-2.7-1.2-2.7-2.7l0,0c0-1.5,1.2-2.7,2.7-2.7h14.6c1.5,0,2.7,1.2,2.7,2.7l0,0
			C20,142.9,18.8,144.1,17.3,144.1z"/>
	</g>
</g>
</svg>
