<?xml version="1.0" encoding="utf-8"?>
<!-- Generator: Adobe Illustrator 24.1.3, SVG Export Plug-In . SVG Version: 6.00 Build 0)  -->
<svg version="1.1" id="圖層_1" focusable="false" xmlns="http://www.w3.org/2000/svg" xmlns:xlink="http://www.w3.org/1999/xlink"
	 x="0px" y="0px" viewBox="0 0 82.4 83.3" style="enable-background:new 0 0 82.4 83.3;" xml:space="preserve">
<style type="text/css">
	.st0{fill:#653CFF;}
</style>
<g>
	<path class="st0" d="M64.9,0h15c1.4,0,2.5,1.1,2.5,2.5v78.3c0,1.4-1.1,2.5-2.5,2.5h-15c-1.4,0-2.5-1.1-2.5-2.5V2.5
		C62.4,1.1,63.6,0,64.9,0z"/>
</g>
<g>
	<path class="st0" d="M13.5,0.7l39.2,39.2c1,1,1,2.6,0,3.5L13.5,82.6c-1,1-2.6,1-3.5,0l-9.2-9.2c-1-1-1-2.6,0-3.5l26.4-26.4
		c1-1,1-2.6,0-3.5L0.7,13.5c-1-1-1-2.6,0-3.5l9.2-9.2C10.9-0.2,12.5-0.2,13.5,0.7z"/>
</g>
</svg>
