<?xml version="1.0" encoding="utf-8"?>
<!-- Generator: Adobe Illustrator 24.1.3, SVG Export Plug-In . SVG Version: 6.00 Build 0)  -->
<svg version="1.1" id="圖層_1" focusable="false" xmlns="http://www.w3.org/2000/svg" xmlns:xlink="http://www.w3.org/1999/xlink"
	 x="0px" y="0px" viewBox="0 0 82.4 83.3" style="enable-background:new 0 0 82.4 83.3;" xml:space="preserve">
<style type="text/css">
	.st0{fill:#653CFF;}
</style>
<g>
	<path class="st0" d="M17.5,83.3h-15c-1.4,0-2.5-1.1-2.5-2.5V2.5C0,1.1,1.1,0,2.5,0h15C18.9,0,20,1.1,20,2.5v78.3
		C20,82.2,18.9,83.3,17.5,83.3z"/>
</g>
<g>
	<path class="st0" d="M69,82.6L29.8,43.4c-1-1-1-2.6,0-3.5L69,0.7c1-1,2.6-1,3.5,0l9.2,9.2c1,1,1,2.6,0,3.5L55.3,39.9
		c-1,1-1,2.6,0,3.5l26.4,26.4c1,1,1,2.6,0,3.5l-9.2,9.2C71.5,83.6,69.9,83.6,69,82.6z"/>
</g>
</svg>
