<?xml version="1.0" encoding="utf-8"?>
<!-- Generator: Adobe Illustrator 24.1.3, SVG Export Plug-In . SVG Version: 6.00 Build 0)  -->
<svg version="1.1" id="圖層_1" focusable="false" xmlns="http://www.w3.org/2000/svg" xmlns:xlink="http://www.w3.org/1999/xlink"
	 x="0px" y="0px" viewBox="0 0 640 512" style="enable-background:new 0 0 640 512;" xml:space="preserve">
<style type="text/css">
	.st0{fill:#653CFF;}
</style>
<circle class="st0" cx="224" cy="128" r="128"/>
<path class="st0" d="M313.6,288h-16.7c-22.2,10.2-46.9,16-72.9,16s-50.6-5.8-72.9-16h-16.7C60.2,288,0,348.2,0,422.4V464
	c0,26.5,21.5,48,48,48h274.9c-2.4-6.8-3.4-14-2.6-21.3l6.8-60.9l1.2-11.1l7.9-7.9l77.3-77.3C389,305.8,353.5,288,313.6,288z"/>
<path class="st0" d="M358.9,433.3l-6.8,61c-1.1,10.2,7.5,18.8,17.6,17.6l60.9-6.8l137.9-137.9l-71.7-71.7L358.9,433.3z"/>
<path class="st0" d="M633,268.9L595.1,231c-9.3-9.3-24.5-9.3-33.8,0l-37.8,37.8l-4.1,4.1l71.8,71.7l41.8-41.8
	C642.3,293.4,642.3,278.3,633,268.9z"/>
</svg>
