<?xml version="1.0" encoding="utf-8"?>
<!-- Generator: Adobe Illustrator 24.1.3, SVG Export Plug-In . SVG Version: 6.00 Build 0)  -->
<svg version="1.1" id="圖層_1" xmlns="http://www.w3.org/2000/svg" xmlns:xlink="http://www.w3.org/1999/xlink" x="0px" y="0px"
	 viewBox="0 0 702.1 251.3" style="enable-background:new 0 0 702.1 251.3;" xml:space="preserve">
<style type="text/css">
	.st0{fill:#FFFFFF;}
	.st1{fill:#772CE8;}
	.st2{fill:#FEFEFE;}
	.st3{fill:none;}
</style>
<polygon class="st0" points="220.9,144.8 181.5,183.5 119.6,183.5 88,215.2 88,183.5 34,183.5 34,20 220.8,20 220.8,144.8 "/>
<g>
	<path class="st1" d="M15.2,2L0,46.9v171.9h60v29.7h37.3l30.3-29.7h44.3l68-67.3V2H15.2z M217.4,143.8l-37.9,37.3h-59.6l-30.4,30.5
		v-30.5h-52V23.5h179.9L217.4,143.8L217.4,143.8z"/>
	<rect x="97.6" y="68.4" class="st1" width="22.3" height="67.2"/>
	<rect x="157.3" y="68.4" class="st1" width="22.3" height="67.2"/>
</g>
<g>
	<path class="st1" d="M282.8,92.2c0-29,0-58,0-87c0.5-0.3,1.1-0.2,1.7-0.2c12.2,0,24.5,0,36.7,0c1.7,0,2.9,0.5,3.9,1.9
		c4.8,6.6,9.6,13.2,14.4,20c1.4,2,3.1,2.9,5.6,2.9c34.4,0,68.9,0,103.3,0c3.4,0,4-0.6,4-4c0-6.1,0-12.1,0-18.2
		c0-2.4,0.1-2.5,2.5-2.5c25.4,0,50.7,0,76.1,0c2.5,0,2.6,0.1,2.6,2.5c0,5.7,0,11.5,0,17.2c0,4.7,0.3,5,5.1,5c5.8,0,11.7,0,17.6,0
		c2.6,0,2.8,0.2,2.8,2.9c0,1.1,0,2.2,0,3.3c0,0.8-0.3,1.8,0.6,2.2c0.8,0.3,1.3-0.6,1.8-1.1c1.9-1.9,3.8-3.8,5.7-5.7
		c1-1.1,2.2-1.5,3.7-1.5c8.7,0,17.3-0.1,26,0.1c2.9,0,5-1,6.6-3.4c4.4-6.3,9.1-12.5,13.5-18.9c1.3-1.8,2.7-2.6,5-2.6
		c12.1,0.1,24.2,0,36.3,0c2.1,0,2.3,0.2,2.3,2.3c0,5.8,0,11.6,0,17.4c0,0.7,0,1.4,0,2.1c0.1,2.1,0.8,2.9,3,3c3.8,0.1,7.7,0.1,11.5,0
		c2.2-0.1,3.8,0.6,5.3,2.2c4.5,4.7,9.2,9.3,13.9,13.9c1.3,1.2,1.8,2.6,1.8,4.5c0,19.5,0,39,0,58.4c0,1.8-0.6,3.2-1.8,4.4
		c-9.2,9.2-18.4,18.4-27.6,27.6c-0.9,0.9-2,1.5-3.1,2c-30.3,0-60.6,0-90.9,0c-1.6-0.6-2.8-1.7-4-2.9c-2.6-2.7-5.2-5.3-7.9-7.9
		c-0.4-0.4-0.8-1.1-1.3-0.9c-0.6,0.2-0.4,1-0.4,1.5c0,2.6,0,5.3,0,7.9c0,0.9-0.1,1.7-0.9,2.2c-15.7,0-31.5,0-47.2,0
		c-1.6-0.6-2.8-1.7-4-2.9c-2.6-2.7-5.2-5.3-7.9-7.9c-0.4-0.4-0.8-1.1-1.4-0.9c-0.6,0.2-0.4,1-0.4,1.5c0,2.6,0,5.3,0,7.9
		c0,0.9-0.1,1.7-0.9,2.2c-32.7,0-65.4,0-98.2,0c-1.6-0.5-2.8-1.7-3.9-2.9c-2.5-2.5-4.9-4.9-7.4-7.4c-0.4-0.4-0.8-1.2-1.5-1
		c-0.7,0.2-0.4,1.1-0.4,1.7c0,2.5,0,4.9,0,7.4c0,0.9-0.1,1.6-0.9,2.2c-17,0-34,0-51,0c-1.6-0.5-2.8-1.7-3.9-2.8
		c-14.6-14.6-29.2-29.2-43.9-43.8C284.5,95,283.3,93.8,282.8,92.2z"/>
	<path class="st2" d="M409.4,102.9c-13.5,0-27.1,0-40.6,0c-1.9,0-3.2-0.6-4.5-1.9c-3.7-3.9-7.6-7.7-11.4-11.4
		c-0.8-0.8-1.1-1.6-1.1-2.7c0-15.7,0-31.4,0-47.1c0-1.5,0.4-2,1.9-2c8.4,0.1,16.8,0.1,25.1,0c1.5,0,2,0.5,2,2c0,10.6,0,21.2,0,31.8
		c0,2.4,0,2.4,2.4,2.4c1.1,0,2.3,0,3.4,0c1,0,1.5-0.4,1.4-1.4c0-1.3,0-2.6,0-3.9c0-9.5,0-18.9,0-28.4c0-2.4,0-2.4,2.5-2.5
		c8.1,0,16.2,0,24.3,0c1.8,0,2.3,0.6,2.3,2.3c-0.1,10.5,0,21,0,31.5c0,2.5,0,2.5,2.5,2.5c4.8,0,4.8,0,4.8-4.8c0-9.6,0-19.2,0-28.9
		c0-2.5,0-2.5,2.5-2.5c8.1,0,16.3,0,24.5,0c1.5,0,2.1,0.4,2.1,2c0,20.3,0,40.7,0,61c0,1.7-0.7,2.1-2.2,2.1
		C437.2,102.9,423.3,102.9,409.4,102.9z"/>
	<path class="st2" d="M623.6,57.6c0-14.2,0-28.3,0-42.4c0-2.7,0-2.7,2.8-2.7c8,0,16.1,0.1,24.1,0c1.8,0,2.2,0.6,2.2,2.3
		c-0.1,6.9,0,13.8,0,20.6c0,2.5,0,2.5,2.6,2.5c5.8,0,11.6,0,17.4,0c1.2,0,2.2,0.4,3,1.3c3.9,4,7.9,8,11.9,11.9
		c0.9,0.9,1.3,1.8,1.3,3c0,15.6,0,31.2,0,46.7c0,1.8-0.5,2.2-2.2,2.2c-8.2-0.1-16.3,0-24.5,0c-2.3,0-2.3,0-2.3-2.4
		c0-10.4,0-20.8,0-31.3c0-2.4,0-2.4-2.5-2.4c-4.8,0-4.8,0-4.8,4.7c0,9.7,0,19.5,0,29.2c0,2.3,0,2.3-2.3,2.3c-8.2,0-16.3,0-24.5,0
		c-2.3,0-2.3,0-2.3-2.3C623.6,86.2,623.6,71.9,623.6,57.6z"/>
	<path class="st2" d="M290,50.6c0-12,0-23.9,0-35.9c0-1.7,0.4-2.3,2.2-2.3c8.3,0.1,16.5,0.1,24.8,0c1.6,0,2.1,0.5,2.1,2.1
		c-0.1,6.9,0,13.9,0,20.8c0,2.5,0,2.5,2.6,2.5c6.9,0,13.8,0,20.7,0c1.6,0,2.2,0.5,2.2,2.1c-0.1,8.2-0.1,16.5,0,24.7
		c0,1.7-0.5,2.1-2.2,2.1c-7.1-0.1-14.1,0-21.2-0.1c-1.7,0-2.1,0.6-2.1,2.2c0,5.1,0,5.1,5,5.1c6.1,0,12.3,0.1,18.4,0
		c1.6,0,2,0.5,2,2.1c-0.1,8.3-0.1,16.6,0,24.9c0,1.5-0.4,2-1.9,2c-12.2-0.1-24.3,0-36.5,0c-1,0-1.8-0.3-2.6-1.1
		c-4-4.1-8.1-8.1-12.2-12.1c-0.9-0.9-1.2-1.8-1.2-3C290.1,74.7,290,62.6,290,50.6z"/>
	<path class="st2" d="M530.9,102.9c-6,0-11.9,0-17.9,0c-1.2,0-2.2-0.4-3-1.2c-4-4.1-8-8.1-12-12c-0.9-0.8-1.2-1.7-1.2-2.9
		c0-24.1,0-48.1,0-72.2c0-1.6,0.4-2.2,2.1-2.2c8.3,0.1,16.5,0.1,24.8,0c1.7,0,2.2,0.5,2.2,2.1c-0.1,6.6,0,13.3,0,19.9
		c0,3.3,0,3.3,3.2,3.3c6.7,0,13.3,0,20,0c1.7,0,2.3,0.5,2.2,2.2c-0.1,8.2-0.1,16.4,0,24.6c0,1.8-0.6,2.2-2.3,2.2c-7-0.1-14,0-21-0.1
		c-1.8,0-2.4,0.6-2.2,2.3c0.1,1,0.1,2.1,0,3.1c-0.1,1.5,0.5,1.9,2,1.9c7.1-0.1,14.1,0,21.2-0.1c1.7,0,2.3,0.3,2.3,2.2
		c-0.1,8.2-0.1,16.5,0,24.7c0,1.6-0.5,2.1-2,2.1C543,102.8,537,102.9,530.9,102.9z"/>
	<path class="st2" d="M594.3,102.9c-6.5,0-13,0-19.5,0c-1.4,0-2.4-0.3-3.3-1.3c-3.9-4-7.9-8-11.9-11.9c-0.8-0.8-1.2-1.7-1.2-2.9
		c0-10.9,0-21.9,0-32.8c0-1.2,0.3-2,1.2-2.9c4.1-4,8.2-8.1,12.2-12.2c0.8-0.8,1.6-1.2,2.7-1.1c13.3,0,26.5,0,39.8,0
		c1.6,0,2.2,0.5,2.2,2.1c-0.1,8.2-0.1,16.5,0,24.7c0,1.7-0.6,2.1-2.2,2.1c-8.2-0.1-16.4,0-24.6-0.1c-1.8,0-2.4,0.5-2.2,2.2
		c0.1,1.1,0.1,2.2,0,3.3c-0.1,1.3,0.5,1.8,1.8,1.8c5.6-0.1,11.2,0,16.9,0c2.8,0,5.6,0.1,8.4,0c1.4,0,1.9,0.4,1.9,1.9
		c0,8.4,0,16.8,0,25.3c0,1.4-0.6,1.8-2,1.8C607.7,102.9,601,102.9,594.3,102.9z"/>
	<path class="st2" d="M460.5,70.4c0-10.1,0-20.2,0-30.2c0-2.3,0-2.3,2.3-2.3c8.2,0,16.4,0,24.6,0c1.7,0,2.1,0.5,2.1,2.2
		c0,20.3,0,40.5,0,60.8c0,1.6-0.4,2.2-2.1,2.2c-8.3-0.1-16.5-0.1-24.8,0c-1.7,0-2.1-0.5-2.1-2.2C460.5,90.6,460.5,80.5,460.5,70.4z"
		/>
</g>
<g>
	<g>
		<path class="st3" d="M334.8,203.5c0.6-4.3,2-8.3,4.1-11.7h-4.1V203.5z"/>
		<path class="st3" d="M361.8,208c0,1.4,0.1,2.4,0.3,3.2c0.1-0.8,0.3-1.8,0.3-3.2c0-1.4-0.1-2.5-0.3-3.2
			C361.9,205.6,361.8,206.6,361.8,208z"/>
		<path class="st1" d="M362.1,196.5c-5,0-7.2,4.4-7.2,11.5c0,7,2.2,11.4,7.2,11.4c4.9,0,7.1-4.4,7.1-11.4
			C369.2,201,367,196.5,362.1,196.5z M362,211.2c-0.1-0.8-0.3-1.8-0.3-3.2c0-1.4,0.1-2.5,0.3-3.2c0.1,0.8,0.3,1.9,0.3,3.2
			C362.3,209.4,362.2,210.4,362,211.2z"/>
		<path class="st1" d="M414.7,179c-2.5,0-5,0.4-7.4,1.3l-0.1-0.3h-5.5h-10.7H384v6.9v3.3c-4.9-6.9-12.8-11.2-22-11.2
			c-4.5,0-8.6,1-12.3,2.8V174v-6.9h-6.9h-43.1h-6.9v6.9v11v6.9h6.9h8V227l6.3,8.9h25.4l5.7-8.7l-10.3-14.7
			c1.9,14.2,13,24.4,27.2,24.4c9.2,0,17.1-4.3,22-11.2V246l5.5,5.3h16.3h5.1v-5.7v-8.8c0.8,0.1,1.7,0.2,2.5,0.2
			c6.6,0,13-3.1,17.5-8.4c4.6-5.5,7.1-12.8,7.1-21.3C438,190.4,428.7,179,414.7,179z"/>
		<path class="st1" d="M334.8,203.5v-11.7h4.1C336.9,195.2,335.4,199.2,334.8,203.5z"/>
		<path class="st1" d="M410.8,196.6c-2.4,0-4.4,1.1-6.7,3.6v16.7c2.1,1.9,4.3,2.4,6.3,2.4c4,0,7.3-3.3,7.3-11.8
			C417.6,200.1,415.5,196.6,410.8,196.6z"/>
		<path class="st1" d="M692.9,202.1c0,0-6.5-23.1-15.6-23.1c-9.6,0-17.1,4.1-20.8,10.7c-0.5-0.8-1-1.6-1.7-2.3
			c-4.5-5.5-11-8.4-18.9-8.4c-7,0-13.8,2.9-18.8,8c-1.5,1.5-2.8,3.3-3.9,5.1c-2.8-8.4-9.3-13.1-18.4-13.1c-4.9,0-8.9,1.7-12.3,4
			c-3.3-2.6-7.5-4-12.4-4c-3.1,0-5.7,0.6-8.1,1.6L562,180h-5.8h-10.7h-6.9v6.9v2.5c-3.9-6.8-10.8-10.4-20.3-10.4
			c-7.3,0-14.4,2.1-21.7,6.5l-5.2,3.1l3.4-4.1l4-4.8l-4.5-4.4c-4.2-4.2-11.5-9.2-22.5-9.2c-9.3,0-17.8,3.4-23.9,9.6
			c-6.6,6.6-10,15.6-10,26.2c0,21,13.8,35.2,34.2,35.2c8.8,0,17.3-3.2,23-8.5c3.4,5.2,9.2,8.5,16.1,8.5c2.7,0,5.2-0.5,7.7-1.4
			l91.1,0.4l4.8-9.4c5,6.5,12.9,10.4,22.4,10.4c6.6,0,13.7-2.3,19-6c5.3,3.7,12.4,6,18.7,6c16.9,0,24.4-19.1,24.4-29.4
			C699.5,200.8,696.4,205,692.9,202.1z"/>
	</g>
	<g>
		<g>
			<polygon class="st0" points="311.2,223.8 311.2,179.6 296.4,179.6 296.4,161.8 346.3,161.8 346.3,179.6 331.4,179.6 331.4,223.8 
							"/>
			<path class="st1" d="M342.9,165.2v11h-15v44.1h-13.2v-44.1h-14.9v-11H342.9 M349.8,158.3h-6.9h-43.1h-6.9v6.9v11v6.9h6.9h8v37.2
				v6.9h6.9h13.2h6.9v-6.9v-37.2h8.1h6.9v-6.9v-11L349.8,158.3L349.8,158.3z"/>
		</g>
		<g>
			<path class="st0" d="M362.1,224.8c-6.4,0-12.3-2.4-16.8-6.8c-4.8-4.7-7.3-11.2-7.3-18.7c0-7.5,2.5-14,7.3-18.8
				c4.4-4.4,10.4-6.8,16.8-6.8c6.4,0,12.3,2.4,16.7,6.8c4.8,4.8,7.3,11.2,7.3,18.8c0,7.5-2.5,14-7.3,18.7
				C374.4,222.4,368.4,224.8,362.1,224.8z M362.1,191.2c-2.5,0-3.7,2.7-3.7,8c0,5.3,1.3,8,3.7,8c2.4,0,3.7-2.7,3.7-8
				C365.7,191.2,363,191.2,362.1,191.2z"/>
			<path class="st1" d="M362.1,177.1c10.7,0,20.6,8.1,20.6,22.1c0,13.9-9.9,22.1-20.6,22.1c-10.7,0-20.7-8.1-20.7-22.1
				C341.4,185.3,351.3,177.1,362.1,177.1 M362.1,210.7c4.9,0,7.1-4.4,7.1-11.4c0-7-2.2-11.5-7.1-11.5c-5,0-7.2,4.4-7.2,11.5
				C354.9,206.2,357.1,210.7,362.1,210.7 M362.1,170.2c-15.7,0-27.5,12.5-27.5,29c0,16.5,11.8,29,27.5,29c15.7,0,27.5-12.4,27.5-29
				C389.5,182.7,377.7,170.2,362.1,170.2L362.1,170.2z M362,202.5c-0.1-0.8-0.3-1.8-0.3-3.2c0-1.4,0.1-2.5,0.3-3.2
				c0.1,0.8,0.3,1.9,0.3,3.2C362.3,200.7,362.2,201.7,362,202.5L362,202.5z"/>
		</g>
		<g>
			<path class="st0" d="M387.5,239.1v-64.4h17l0.4,1.8c2.7-1.6,6.1-2.9,9.9-2.9c11.9,0,19.9,10,19.9,24.9c0,7.6-2.2,14.2-6.3,19.1
				c-3.9,4.6-9.3,7.2-14.9,7.2c-2,0-4-0.4-6-1.2v15.5H387.5z M407.5,206.4c0.9,0.5,1.8,0.7,2.9,0.7c3.4,0,3.8-5.8,3.8-8.3
				c0-7.4-2.2-7.4-3.4-7.4c-0.8,0-1.7,0.1-3.3,1.6V206.4z"/>
			<path class="st1" d="M414.7,177.1c10.1,0,16.4,8.4,16.4,21.4c0,14.5-8.7,22.8-17.7,22.8c-3.6,0-7-1.6-9.8-4.4l0.4,6.6v12.1h-13.1
				v-57.5h10.7l0.9,4.1h0.3C406.2,179.3,410.4,177.1,414.7,177.1 M410.4,210.5c4,0,7.3-3.3,7.3-11.8c0-7.4-2.1-10.9-6.8-10.9
				c-2.4,0-4.4,1.1-6.7,3.6v16.7C406.1,209.9,408.4,210.5,410.4,210.5 M414.7,170.2c-2.5,0-5,0.4-7.4,1.3l-0.1-0.3h-5.5h-10.7H384
				v6.9v57.5v6.9h6.9H404h6.9v-6.9v-7.6c0.8,0.1,1.7,0.2,2.5,0.2c6.6,0,13-3.1,17.5-8.4c4.6-5.5,7.1-12.8,7.1-21.3
				C438,181.6,428.7,170.2,414.7,170.2L414.7,170.2z"/>
		</g>
		<g>
			<path class="st0" d="M472.1,224.8c-18.7,0-30.8-12.5-30.8-31.7c0-19,12.6-32.3,30.5-32.3c9.8,0,16.3,4.4,20.1,8.2l2.2,2.2
				l-11.4,13.6l-2.7-2.4c-2.3-2.1-4.4-3.4-7.8-3.4c-6.5,0-10.5,5.2-10.5,13.7c0,12.4,6.7,13.9,11.7,13.9c0.7,0,1.3-0.1,1.8-0.2v-3.2
				h-8.7v-17.7h27.4v30.7l-1.1,1C488,221.9,480,224.8,472.1,224.8z"/>
			<path class="st1" d="M471.9,164.2c8.1,0,13.9,3.4,17.6,7.2l-7,8.4c-2.7-2.4-5.5-4.3-10.1-4.3c-8.1,0-14,6.4-14,17.1
				c0,11,4.9,17.3,15.1,17.3c2,0,4.1-0.5,5.3-1.4v-8.9H470v-10.8h20.5v25.8c-3.9,3.7-10.7,6.7-18.4,6.7c-15.3,0-27.3-9.6-27.3-28.3
				C444.8,174.7,457.2,164.2,471.9,164.2 M471.9,157.3c-9.3,0-17.8,3.4-23.9,9.6c-6.6,6.6-10,15.6-10,26.2c0,21,13.8,35.2,34.2,35.2
				c8.9,0,17.5-3.2,23.1-8.7l2.1-2v-2.9v-25.8V182h-6.9h-0.8l5.1-6.2l4-4.8l-4.5-4.4C490.2,162.3,482.9,157.3,471.9,157.3
				L471.9,157.3z"/>
		</g>
		<g>
			<path class="st0" d="M511.2,224.8c-9.2,0-16-6.8-16-16.3c0-6.5,3.1-10.7,7.5-13.5l-7.2-13.6l2.8-1.7c6.8-4.1,13.3-6.1,19.9-6.1
				c13.2,0,20.5,8.1,20.5,22.7v27.4h-16.9l-0.4-1.9C518.1,223.8,514.8,224.8,511.2,224.8z M514.7,207.6c0.2,0.1,0.5,0.1,1.1,0.1
				c1,0,1.7-0.2,2.9-1.3v-1.2C515.9,205.9,514.7,206.8,514.7,207.6C514.7,207.5,514.7,207.5,514.7,207.6z"/>
			<path class="st1" d="M518.3,177.1c10.9,0,17,6.1,17,19.2v23.9h-10.7l-1-4.2h-0.3c-3.5,3.1-7.4,5.3-12.1,5.3
				c-7.8,0-12.5-5.8-12.5-12.8c0-8.9,7-13.7,23.4-15.5c-0.3-3.4-2.1-5.4-6.4-5.4c-3.3,0-6.8,1.3-11,3.7l-4.6-8.7
				C505.7,179.4,511.7,177.1,518.3,177.1 M515.8,211.1c2.7,0,4.4-1.3,6.4-3.3v-6.7c-8.2,1.1-10.9,3.5-10.9,6.4
				C511.2,209.9,513,211.1,515.8,211.1 M518.3,170.2c-7.3,0-14.4,2.1-21.7,6.5l-5.6,3.4l3.1,5.8l4.3,8.1c-3.8,3.2-6.5,7.9-6.5,14.5
				c0,11.2,8.3,19.7,19.4,19.7c2.7,0,5.2-0.5,7.7-1.4l0.1,0.4h5.5h10.7h6.9v-6.9v-23.9C542.2,179.8,533.5,170.2,518.3,170.2
				L518.3,170.2z"/>
		</g>
		<g>
			<path class="st0" d="M591.5,223.8v-27.9c0-3.1-0.5-3.9-0.6-4l0,0c0,0-0.3-0.1-0.8-0.1c-0.7,0-1.8,0.5-3.3,1.8v30.1h-20.1v-27.9
				c0-3.1-0.5-3.9-0.6-4l0,0c0,0-0.3-0.1-0.8-0.1c-0.7,0-1.8,0.5-3.3,1.8v30.1h-20v-49h17.1l0.4,2.4c2.9-2,6.3-3.4,10.7-3.4
				c5.2,0,9.3,1.7,12.2,5.1c3.4-2.9,7.3-5.1,12.5-5.1c10.6,0,16.6,7.5,16.6,20.6v29.5L591.5,223.8L591.5,223.8z"/>
			<path class="st1" d="M594.9,177.1c9.2,0,13.2,6.6,13.2,17.1v26.1h-13.2v-24.4c0-5.8-1.5-7.5-4.8-7.5c-1.9,0-4.2,1.2-6.7,3.8v28.1
				h-13.3v-24.4c0-5.8-1.5-7.5-4.8-7.5c-1.9,0-4.2,1.2-6.7,3.8v28.1h-13.1v-42.1h10.7l0.9,5.3h0.3c3.5-3.5,7.1-6.4,12.8-6.4
				c5.8,0,9.4,2.4,11.5,7C585.3,180.4,589.3,177.1,594.9,177.1 M594.9,170.2c-4.9,0-8.9,1.7-12.3,4c-3.3-2.6-7.5-4-12.4-4
				c-3.1,0-5.7,0.6-8.1,1.6l-0.1-0.5h-5.8h-10.7h-6.9v6.9v42.1v6.9h6.9h13.1h6.9h4.7h13.2h6.9h4.7h13.2h6.9v-6.9v-26.1
				C615,179.2,607.5,170.2,594.9,170.2L594.9,170.2z"/>
		</g>
		<g>
			<path class="st0" d="M637.4,224.8c-14.6,0-24.8-10.5-24.8-25.5c0-7.3,2.5-13.9,7.1-18.6c4.3-4.4,10.3-7,16.3-7
				c13.1,0,21.5,9.4,21.5,23.8c0,2.5-0.3,5.2-0.8,6.6l-0.8,2.4h-5.1l6.1,11l-2.5,1.8C649.7,222.8,643.3,224.8,637.4,224.8z
				 M634.5,206.6c1,0.8,2.6,1.3,4.8,1.3c1.8,0,3.5-0.4,5.4-1.3H634.5z M638.3,191.1c-0.6-0.4-1.3-0.4-2-0.4c-0.8,0-1.4,0.2-1.9,0.4
				H638.3z"/>
			<path class="st1" d="M636,177.1c12.1,0,18.1,8.8,18.1,20.4c0,2.3-0.3,4.7-0.6,5.6h-24.7c1.2,5.8,5.2,8.1,10.5,8.1
				c3,0,5.8-0.9,8.9-2.7l4.4,7.9c-4.4,3.1-10.1,4.8-15.1,4.8c-12.1,0-21.4-8.1-21.4-22.1C616,185.6,625.8,177.1,636,177.1
				 M628.5,194.5h14.4c0-4.2-1.8-7.3-6.7-7.3C632.6,187.2,629.4,189.5,628.5,194.5 M636,170.2c-7,0-13.8,2.9-18.8,8
				c-5.2,5.4-8.1,12.8-8.1,21c0,17.1,11.6,29,28.3,29c6.6,0,13.7-2.3,19.1-6.1l5-3.6l-3-5.4l-1.8-3.2h1.8l1.5-4.9
				c0.6-2,0.9-5.3,0.9-7.6c0-7.6-2.1-14.1-6-18.9C650.4,173.1,643.9,170.2,636,170.2L636,170.2z"/>
		</g>
		<g>
			<path class="st0" d="M675.1,224.8c-6.3,0-13.6-2.6-18.4-6.7l-2.4-2l9.7-13.6c-6.3-4.7-6.3-9.9-6.3-11.9c0-9.9,8.1-16.9,19.7-16.9
				c8,0,13.6,3.5,17.2,6.1l2.8,2.1l-9.2,12.3c4,2.3,8.1,6.3,8.1,13.5C696.1,219.5,685.5,224.8,675.1,224.8z M666.8,204.5
				c3.3,2.5,6.1,3.7,8.6,3.7c0.2,0,0.3,0,0.5,0c-1-0.5-2.4-1-3.5-1.4c-0.5-0.2-1.1-0.4-1.7-0.7c-1.8-0.7-3.4-1.5-4.8-2.3
				L666.8,204.5z M679.6,190.6c0.3,0.1,0.5,0.2,0.8,0.3C680.1,190.8,679.8,190.7,679.6,190.6z"/>
			<path class="st1" d="M677.3,177.1c6.7,0,11.4,2.7,15.1,5.4l-5.9,7.9c-3-2.1-5.9-3.6-8.7-3.6c-3,0-4.4,1-4.4,3
				c0,2.5,3.8,3.5,8.2,5c5.3,2,11.1,5,11.1,12.7c0,7.8-6.1,13.8-17.5,13.8c-5.5,0-12-2.4-16.2-5.9l5.8-8.2c3.8,3,7.3,4.4,10.7,4.4
				c3.5,0,5-1.3,5-3.3c0-2.5-4.1-3.7-8.4-5.4c-5-2-11-5.4-11-12.4C661,182.6,667.5,177.1,677.3,177.1 M677.3,170.2
				c-13.7,0-23.2,8.3-23.2,20.3c0,4.9,1.7,9,5.1,12.4l-0.2,0.2l-5.8,8.2l-3.7,5.2l4.9,4.1c5.4,4.6,13.5,7.5,20.7,7.5
				c16.9,0,24.4-10.4,24.4-20.7c0-6.8-3.1-11.3-6.6-14.2l5-6.7l4.2-5.6l-5.6-4.1C692.6,174.1,686.3,170.2,677.3,170.2L677.3,170.2z"
				/>
		</g>
	</g>
</g>
</svg>
