<?xml version="1.0" encoding="utf-8"?>
<!-- Generator: Adobe Illustrator 24.1.3, SVG Export Plug-In . SVG Version: 6.00 Build 0)  -->
<svg version="1.1" id="koala" xmlns="http://www.w3.org/2000/svg" xmlns:xlink="http://www.w3.org/1999/xlink" x="0px" y="0px"
	 viewBox="0 0 108.4 66.3" style="enable-background:new 0 0 108.4 66.3;" xml:space="preserve">
<style type="text/css">
	.st0{fill:#C8C2BF;}
	.st1{fill:#9C928D;}
	.st2{fill:#E8BD4B;}
	.st3{fill:#ACA39E;}
	.st4{fill:#EAC65F;}
	.st5{fill:#3C3432;}
</style>
<circle id="koala_x5F_tail" class="st0" cx="102.8" cy="25.1" r="5.5"/>
<g id="koala_x5F_body">
	<g>
		<path class="st1" d="M107.6,51.2c0.5-2.2,0.8-4.4,0.8-6.7c0-14-9.7-25.6-22.8-28.6v35.3C85.6,51.2,107.6,51.2,107.6,51.2z"/>
		<path class="st2" d="M85.6,15.9C65,10.3,45.2,31.2,50.3,51.2h35.3C85.6,51.2,85.6,15.8,85.6,15.9z"/>
	</g>
</g>
<path id="koaka_x5F_hind-feet_x0A_" class="st3" d="M108.2,45.4c-2.8-11.5-20.3-7.6-18,4c0.3,1.7-0.3,6.2-0.8,8l0,0
	c-1.6,4.9,3.3,10,8.3,8.7c7.2-2.4,10.8-11.8,10.7-19.2l0,0C108.3,46.4,108.3,45.9,108.2,45.4z"/>
<g id="koala_x5F_forefoot">
	<path id="koala_x5F_back-foot" class="st3" d="M72.8,45.4c-2.8-11.5-20.3-7.6-18,4c0.3,1.7-0.3,6.2-0.8,8l0,0
		c-1.5,4.9,3.3,10,8.3,8.7c7.2-2.4,10.8-11.8,10.7-19.2l0,0C73,46.4,72.9,45.9,72.8,45.4z"/>
	<g>
		<path class="st4" d="M73.1,46.8C73.1,46.8,73,46.8,73.1,46.8c-0.1-0.5-0.1-1-0.2-1.4c-2.8-11.5-20.3-7.6-18,4
			c0.2,1,0.1,2.9-0.2,4.7l14.7,6.1C71.9,56.2,73.1,51.2,73.1,46.8z"/>
	</g>
</g>
<g id="koala_x5F_face">
	<g>
		<path class="st3" d="M32.5,17.7c-0.5,4.6-6.8,8-10.6,10.3c-7.1,5.3-18.6,5.7-20.5,1c-1.2-3,1-4.5,1.4-5.7c0.5-1.2-2.6,0.4-2.8-3.6
			c-0.2-3.5,4.4-2.4,3.1-4.1C1.9,14-0.5,13.9,0.1,9C1,2.2,10.9,0,16.9,0.7C25.5,1.6,33.5,9.5,32.5,17.7z"/>
		<path class="st0" d="M16.3,24.5c-6.4-2.1-5.5-6.9-4.5-9.9s3.1-7.4,9.4-5.3c6.4,2.1,8.1,7.7,7.2,10.7C27.5,23,22.7,26.5,16.3,24.5z
			"/>
		<path class="st3" d="M50.5,17.7c0.5,4.6,6.8,7.9,10.6,10.2c7.1,5.3,18.6,5.7,20.5,1c1.2-3-1-4.5-1.4-5.7c-0.5-1.2,2.6,0.4,2.8-3.6
			c0.2-3.5-4.4-2.4-3.1-4.1c1.2-1.6,3.7-1.8,3-6.7C82,2.2,72.1,0,66.1,0.7C57.5,1.6,49.5,9.5,50.5,17.7z"/>
		<path class="st0" d="M66.7,24.5c6.4-2.1,5.5-6.9,4.5-9.9s-3.1-7.4-9.5-5.3S53.6,17,54.5,20C55.5,23,60.3,26.5,66.7,24.5z"/>
	</g>
	<path class="st3" d="M70.5,37c0,13.2-6.7,15.4-27.8,15.4c-17,0-30.2,0.9-30.1-15.4c0-16.2,12.7-30.4,28.8-30.6
		C57.5,6.2,70.4,20.8,70.5,37z"/>
	<g>
		<ellipse transform="matrix(0.9999 -0.0123 0.0123 0.9999 -0.4999 0.5185)" class="st0" cx="41.9" cy="40.9" rx="6.3" ry="5.9"/>
		<path class="st5" d="M51.7,35.4c0.1,7.1-5.9,7.8-9.8,7.9c-3.9,0-9.9-0.6-10-7.7s5.4-10.8,9.8-10.9C46.6,24.7,51.6,28.3,51.7,35.4z
			"/>
	</g>
	<g id="koala_x5F_eyes">
		<path class="st5" d="M34.9,21.6c0.3,0,0.5,0.3,0.5,0.7c-0.3,1.6-1.4,2.8-2.8,2.8s-2.6-1.2-2.8-2.8c-0.1-0.4,0.2-0.7,0.5-0.7H34.9z
			"/>
		<path class="st5" d="M53.3,21.6c0.3,0,0.5,0.3,0.5,0.7c-0.3,1.6-1.4,2.8-2.8,2.8s-2.6-1.2-2.8-2.8c-0.1-0.4,0.2-0.7,0.5-0.7H53.3z
			"/>
	</g>
</g>
<g id="koala_x5F_hair">
	<path class="st3" d="M42.8,6c0,0,2.5-4.4,7-1.1c-1.3,1.5-2.3,2.9-2.3,2.9h-4.8V6H42.8z"/>
	<path class="st3" d="M37.2,9.7V0c0,0,6.1,1,6.1,5.9c0,3.8,0,3.8,0,3.8H37.2z"/>
</g>
</svg>
