<?xml version="1.0" encoding="utf-8"?>
<!-- Generator: Adobe Illustrator 24.1.3, SVG Export Plug-In . SVG Version: 6.00 Build 0)  -->
<svg version="1.1" id="圖層_1" xmlns="http://www.w3.org/2000/svg" xmlns:xlink="http://www.w3.org/1999/xlink" x="0px" y="0px"
	 viewBox="0 0 50 50" style="enable-background:new 0 0 50 50;" xml:space="preserve">
<style type="text/css">
	.st0{fill:#FFFFFF;}
</style>
<g>
	<path class="st0" d="M46.91,28.12H3.09c-1.7,0-3.09-1.38-3.09-3.09v-0.08c0-1.7,1.38-3.09,3.09-3.09h43.83
		c1.7,0,3.09,1.38,3.09,3.09v0.08C50,26.74,48.62,28.12,46.91,28.12z"/>
</g>
<g>
	<path class="st0" d="M21.88,46.91V3.09c0-1.7,1.38-3.09,3.09-3.09h0.08c1.7,0,3.09,1.38,3.09,3.09v43.83c0,1.7-1.38,3.09-3.09,3.09
		h-0.08C23.26,50,21.88,48.62,21.88,46.91z"/>
</g>
</svg>
