<?xml version="1.0" encoding="utf-8"?>
<!-- Generator: Adobe Illustrator 24.1.3, SVG Export Plug-In . SVG Version: 6.00 Build 0)  -->
<svg version="1.1" id="圖層_1" xmlns="http://www.w3.org/2000/svg" xmlns:xlink="http://www.w3.org/1999/xlink" x="0px" y="0px"
	 viewBox="0 0 77 77" style="enable-background:new 0 0 77 77;" xml:space="preserve">
<style type="text/css">
	.st0{fill:#555555;}
</style>
<g>
	<path class="st0" d="M77,14.55c0-1.1-0.9-2-2-2h-5.22H56.54l-2.16-6.6C53.31,2.44,49.97,0,46.23,0H30.77
		c-3.74,0-7.08,2.44-8.15,5.95l-2.16,6.6H7.22H2c-1.1,0-2,0.9-2,2v3c0,1.1,0.9,2,2,2h5.76l3.75,49.23c0.08,4.54,3.8,8.22,8.37,8.22
		h37.27c4.56,0,8.29-3.67,8.37-8.22l3.75-49.23H75c1.1,0,2-0.9,2-2V14.55z M29.29,8.09c0.01-0.03,0.02-0.06,0.03-0.1
		C29.49,7.41,30.09,7,30.77,7h15.46c0.68,0,1.28,0.41,1.45,0.99c0.01,0.03,0.02,0.06,0.03,0.1l1.46,4.46H27.83L29.29,8.09z
		 M58.51,68.37l-0.01,0.27c0,0.75-0.61,1.37-1.37,1.37H19.87c-0.75,0-1.37-0.61-1.37-1.37l-3.72-49.08H23h31h8.22L58.51,68.37z"/>
	<path class="st0" d="M30,26.81c-1.93,0-3.5,1.57-3.5,3.5v28.93c0,1.93,1.57,3.5,3.5,3.5s3.5-1.57,3.5-3.5V30.31
		C33.5,28.38,31.93,26.81,30,26.81z"/>
	<path class="st0" d="M47,26.81c-1.93,0-3.5,1.57-3.5,3.5v28.93c0,1.93,1.57,3.5,3.5,3.5s3.5-1.57,3.5-3.5V30.31
		C50.5,28.38,48.93,26.81,47,26.81z"/>
</g>
</svg>
